<svg xmlns="http://www.w3.org/2000/svg" width="176.461" height="327.004" viewBox="1285.095 7978.84 176.461 327.004"><g data-name="Untitled design (5)"><g data-name="Group 84" transform="translate(1284.146 7978)" clip-path="url(&quot;#a&quot;)"><g data-name="Group 83" transform="translate(-3.313 .82)" clip-path="url(&quot;#b&quot;)"><g data-name="Group 82" clip-path="url(&quot;#c&quot;)"><g data-name="Group 81" clip-path="url(&quot;#d&quot;)"><path d="m47.504 165.84-1.191.457-1.172.402c-.778.281-1.567.492-2.352.742-1.57.442-3.144.86-4.719 1.141-4.371.874-8.765.93-12.451-.116a14.343 14.343 0 0 1-4.342-2.009 14.028 14.028 0 0 1-4.695-5.804 15.198 15.198 0 0 1-.102-.235 9.851 9.851 0 0 1-.481-1.246l-.014-.041a18.106 18.106 0 0 0-.231-.658l-.41-1.559-.098-.543a26.6 26.6 0 0 1-.492-4.175 94.799 94.799 0 0 1-.016-.286 37.927 37.927 0 0 1-.013-1.013c0-1.826.13-3.684.388-5.542a41.972 41.972 0 0 1 .492-2.828 79.17 79.17 0 0 1 .618-2.617 65.236 65.236 0 0 1 2.129-6.851 61.532 61.532 0 0 1 23.824-30.383c8.316-5.419 18.34-8.327 28.263-8.327a49.07 49.07 0 0 1 8.764.78c3.14.586 6.234 1.422 9.156 2.656a8.171 8.171 0 0 1 .9.393l.19.092 1.082.511a23.97 23.97 0 0 0 .666.315l.03.013a11.582 11.582 0 0 1 1.441.746l2.078 1.196.209.12a5.836 5.836 0 0 1 .31.184l1.489 1.02.996.684.5.336 2.363 1.894.469.375a8.229 8.229 0 0 1 .338.309 97.959 97.959 0 0 0 .111.105l1.79 1.649c.3.273.597.546.87.855a114.888 114.888 0 0 0 .771.815l.07.073a37.735 37.735 0 0 1 2.448 2.745c.199.245.403.485.607.726a23.207 23.207 0 0 1 .956 1.18l1.465 1.992a24.458 24.458 0 0 1 1.184 1.717l.045.07a128.036 128.036 0 0 0 .17.26 85.761 85.761 0 0 0 .45.694l.113.173a63.328 63.328 0 0 1 .784 1.22l1.238 2.163.621 1.082.563 1.121 1.125 2.235 1.015 2.293a43.349 43.349 0 0 1 1.317 3.218l.013.037a96.598 96.598 0 0 0 .541 1.409 26.935 26.935 0 0 1 .49 1.43c.102.32.203.64.311.956.086.274.177.546.27.818a19.403 19.403 0 0 1 .484 1.589c.126.464.256.927.385 1.39a53 53 0 0 1 .88 3.492 46.456 46.456 0 0 0 .204.895l.002.008a27.222 27.222 0 0 1 .334 1.566l.422 2.512c.065.396.134.79.204 1.186a39.956 39.956 0 0 1 .546 3.853 93.218 93.218 0 0 1 .736 11.983c0 2.824-.11 5.652-.307 8.474a138.361 138.361 0 0 1-.09 1.207 122.18 122.18 0 0 1-3.023 19.203 167.41 167.41 0 0 1-6.078 19.91c-2.492 6.508-5.363 12.887-8.516 19.141l-2.445 4.652a151.547 151.547 0 0 1-1.28 2.293c-.433.763-.868 1.526-1.298 2.293a225.49 225.49 0 0 1-5.034 8.372l-.114.184a2510.032 2510.032 0 0 0-.293.472A253.892 253.892 0 0 1 84.41 269.02c-8.504 11.25-18.039 21.757-28.37 31.433-5.165 4.809-10.638 9.305-16.704 12.887-3.023 1.797-6.203 3.351-9.535 4.527a42.48 42.48 0 0 1-10.363 2.285 37.174 37.174 0 0 0 1.259-.022 40.902 40.902 0 0 0 9.354-1.454 54.965 54.965 0 0 0 10.062-3.903c6.45-3.253 12.336-7.515 17.895-12.066a222.708 222.708 0 0 0 15.933-14.492 247.774 247.774 0 0 0 14.61-15.883 248.58 248.58 0 0 0 13.133-17.184 216.442 216.442 0 0 0 5.964-9.046 381.08 381.08 0 0 1 .712-1.154l.306-.494a223.547 223.547 0 0 0 1.822-2.977l2.707-4.715a198.962 198.962 0 0 0 9.54-19.594 164.53 164.53 0 0 0 7.035-20.75c1.917-7.078 3.19-14.36 3.906-21.715a122.93 122.93 0 0 0 .56-11.5c0-1.368-.026-2.737-.08-4.106a97.607 97.607 0 0 0-.476-6.62 44.414 44.414 0 0 0-.466-3.965l-.043-.292a155.844 155.844 0 0 1-.19-1.29l-.415-2.766a32.246 32.246 0 0 0-.347-1.816l-.006-.029a60.077 60.077 0 0 1-.19-.92 60.846 60.846 0 0 0-.988-4.227c-.11-.42-.22-.84-.328-1.262-.145-.617-.338-1.223-.531-1.83a51.195 51.195 0 0 1-.274-.877c-.289-.894-.535-1.805-.863-2.691a134.339 134.339 0 0 1-.55-1.507c-.457-1.27-.915-2.541-1.47-3.778a163.55 163.55 0 0 1-.368-.87l-.105-.25a87.228 87.228 0 0 0-.64-1.49l-1.242-2.555-.621-1.28-.688-1.247-1.378-2.492c-.493-.82-1.008-1.617-1.512-2.43a378.28 378.28 0 0 1-.198-.316 30.504 30.504 0 0 0-1.38-2.07l-1.672-2.34c-.559-.774-1.192-1.5-1.79-2.254a46.793 46.793 0 0 0-2.93-3.351c-.303-.324-.605-.648-.905-.973a14.108 14.108 0 0 0-1.027-1.024l-1.06-.996-1.058-1a19.472 19.472 0 0 1-.177-.165l-.036-.033a12.364 12.364 0 0 0-.322-.294l-.566-.465-2.832-2.305-.598-.422-2.406-1.68-.602-.417c-.155-.1-.315-.193-.474-.286a30.967 30.967 0 0 1-.159-.093l-2.535-1.492a17.292 17.292 0 0 0-1.766-.932l-.076-.037a40.588 40.588 0 0 1-.779-.379l-1.328-.644c-.445-.211-.883-.438-1.348-.61a55.34 55.34 0 0 0-11.293-3.394 40.884 40.884 0 0 1-1.004-.18l-.156-.029a20.012 20.012 0 0 0-1.742-.268l-2.922-.332a755.404 755.404 0 0 1-.45-.026c-1.8-.106-3.602-.212-5.401-.158l-1.465.016-1.461.094-1.457.097-.727.051-.726.09-2.899.363-2.867.532a67.05 67.05 0 0 0-11.164 3.332 65.062 65.062 0 0 0-10.371 5.375 63.984 63.984 0 0 0-9.156 7.148c-1.442 1.297-2.758 2.711-4.082 4.113l-1.895 2.18a32.693 32.693 0 0 0-1.184 1.47l-.054.069a62.515 62.515 0 0 1-.563.719c-2.336 3.055-4.468 6.258-6.3 9.629a79.573 79.573 0 0 0-4.739 10.453 79.495 79.495 0 0 0-3.101 11.078 51.21 51.21 0 0 0-1 10.007 49.39 49.39 0 0 0 .035 1.856 37.988 37.988 0 0 0 .758 6.145l.156.77.203.769a122.863 122.863 0 0 1 .12.442 39.42 39.42 0 0 0 .306 1.097 49.626 49.626 0 0 1 .136.384l.114.329a21.298 21.298 0 0 0 .918 2.338 24.13 24.13 0 0 0 8.52 10.308c3.808 2.516 8.21 3.875 12.382 4.203a27.007 27.007 0 0 0 2.948.15 57.807 57.807 0 0 0 3.232-.11 48.514 48.514 0 0 0 5.898-.852c1.926-.379 3.793-.898 5.64-1.45a77.578 77.578 0 0 1 .844-.274l.034-.011a37.02 37.02 0 0 0 1.85-.632l1.343-.492 1.293-.528a129.415 129.415 0 0 1 1.527-.626l.072-.03a59.434 59.434 0 0 0 3.522-1.516c1.68-.777 3.375-1.523 5.008-2.39a148.52 148.52 0 0 0 18.852-11.403 209.142 209.142 0 0 0 17.074-13.586 311.473 311.473 0 0 0 15.707-14.886c5.05-5.106 10-10.293 14.816-15.637a278.555 278.555 0 0 0 26.63-33.988 175.954 175.954 0 0 0 19.241-38.625c2.332-6.809 4.22-13.766 5.454-20.84 1.21-7.07 1.89-14.223 1.824-21.36a126.765 126.765 0 0 1-3.41 21.024 137.03 137.03 0 0 1-6.649 20.125 169.015 169.015 0 0 1-9.312 18.977 196.32 196.32 0 0 1-11.493 17.71 252.082 252.082 0 0 1-13.128 16.555A336.866 336.866 0 0 1 122.418 110a426.337 426.337 0 0 1-30.867 28.926c-5.383 4.484-10.934 8.722-16.703 12.578-5.758 3.86-11.72 7.363-17.91 10.316-1.528.778-3.114 1.43-4.68 2.118-1.07.494-2.169.911-3.267 1.329a110.09 110.09 0 0 0-1.487.573Z" fill="#2c2c2c" fill-rule="evenodd" data-name="Path 759"/></g></g></g></g><g data-name="Group 88" transform="translate(1286.146 8284)" clip-path="url(&quot;#e&quot;)"><g data-name="Group 87" transform="translate(-5.313 -305.18)" clip-path="url(&quot;#f&quot;)"><g data-name="Group 86" clip-path="url(&quot;#g&quot;)"><g data-name="Group 85" clip-path="url(&quot;#h&quot;)"><path d="m16.578 316.887-1.27.578-1.28.555a185.575 185.575 0 0 1-.165.06 24.16 24.16 0 0 0-1.144.44l-6.469 2.695 6.32 2.281a68.383 68.383 0 0 0 4.387 1.426 62.041 62.041 0 0 0 4.484 1.101 51.2 51.2 0 0 0 4.586.743c1.543.18 3.106.289 4.7.25-1.305-.918-2.641-1.711-3.977-2.473a91.845 91.845 0 0 0-4.043-2.16 134.751 134.751 0 0 0-4.078-1.977 160.888 160.888 0 0 0-4.113-1.836l-.149 4.985c.531-.164 1.059-.352 1.582-.532l1.547-.62 1.496-.731a370.592 370.592 0 0 1 .244-.133 38.832 38.832 0 0 0 1.21-.676 26.644 26.644 0 0 0 5.183-4.097 24.753 24.753 0 0 0 3.898-5.239c1.04-1.906 1.825-3.933 2.153-6.062a164.144 164.144 0 0 1-2.404 2.369 58.286 58.286 0 0 1-2.042 1.877 49.325 49.325 0 0 1-4.578 3.59 44.331 44.331 0 0 1-4.828 2.949 21.515 21.515 0 0 0-.75.377l-.188.098a55.572 55.572 0 0 1-.312.162Z" fill="#2c2c2c" fill-rule="evenodd" data-name="Path 764"/></g></g></g></g></g><defs><clipPath id="h"><path d="m249.688 175.383 6.386 323.937 180.715-3.562-6.387-323.938-180.714 3.563Z" data-name="Path 765" transform="translate(-249.688 -171.82)"/></clipPath><clipPath id="g"><path d="m249.688 175.383 6.386 323.937 180.715-3.562-6.387-323.938-180.714 3.563Z" data-name="Path 766" transform="translate(-249.688 -171.82)"/></clipPath><clipPath id="f"><path d="m256.074 499.32-6.387-323.937 180.715-3.563 6.387 323.938-180.715 3.562Z" data-name="Path 767" transform="translate(-249.688 -171.82)"/></clipPath><clipPath id="e"><path d="M255 477h27v22h-27v-22Z" data-name="Path 768" transform="translate(-255 -477)"/></clipPath><clipPath id="d"><path d="m249.688 175.383 6.386 323.937 180.715-3.562-6.387-323.938-180.714 3.563Z" data-name="Path 760" transform="translate(-249.688 -171.82)"/></clipPath><clipPath id="c"><path d="m249.688 175.383 6.386 323.937 180.715-3.562-6.387-323.938-180.714 3.563Z" data-name="Path 761" transform="translate(-249.688 -171.82)"/></clipPath><clipPath id="b"><path d="m256.074 499.32-6.387-323.937 180.715-3.563 6.387 323.938-180.715 3.562Z" data-name="Path 762" transform="translate(-249.688 -171.82)"/></clipPath><clipPath id="a"><path d="M253 171h178v321H253V171Z" data-name="Path 763" transform="translate(-253 -171)"/></clipPath></defs></svg>