<svg width="1454" height="1468" viewBox="0 0 1454 1468" fill="none" xmlns="http://www.w3.org/2000/svg">
<path d="M300.913 628.124C299.52 636.845 296.938 645.101 293.167 652.891C289.395 660.682 283.945 668.031 276.814 674.941C275.212 676.452 273.381 676.959 271.322 676.463C269.293 675.777 267.845 674.497 266.977 672.624C266.11 670.75 266.713 668.801 268.786 666.777C275.255 660.353 280.11 653.692 283.35 646.794C286.59 639.896 288.786 632.844 289.936 625.64C291.904 613.316 291.028 603.582 287.308 596.439C283.619 589.106 277.69 584.84 269.521 583.641C263.062 582.693 257.68 584.135 253.374 587.966C248.909 591.579 244.78 597.959 240.986 607.104L231.518 629.873C226.761 641.399 220.984 649.574 214.187 654.398C207.42 659.032 199.383 660.666 190.075 659.3C178.297 657.571 169.605 651.736 163.999 641.793C158.234 631.633 156.547 619.064 158.938 604.086C160.271 595.743 162.872 587.975 166.742 580.782C170.643 573.399 175.677 567.443 181.844 562.915C184.046 561.298 186.162 560.832 188.191 561.518C190.22 562.204 191.463 563.55 191.92 565.558C192.407 567.376 191.52 569.283 189.257 571.279C183.85 575.919 179.602 581.214 176.513 587.164C173.235 593.086 171.066 599.365 170.006 606.001C168.159 617.566 169.286 626.949 173.385 634.148C177.295 641.319 183.429 645.518 191.788 646.745C198.247 647.693 203.788 646.468 208.413 643.072C213.039 639.676 217.092 633.771 220.574 625.356L230.043 602.587C235.05 590.71 240.793 582.141 247.27 576.883C253.748 571.624 261.641 569.678 270.949 571.044C282.537 572.745 291.104 578.756 296.649 589.078C302.004 599.372 303.426 612.387 300.913 628.124Z" fill="black"/>
<path d="M345.613 504.855C339.793 516.756 331.973 525.76 322.152 531.865C312.415 537.799 301.417 540.851 289.158 541.022C276.983 541.02 264.24 538.029 250.931 532.047C230.966 523.075 217.693 510.903 211.11 495.532C204.528 480.161 205.58 463.593 214.267 445.827C217.472 439.272 221.945 433.183 227.686 427.558C233.336 421.681 240.183 417.29 248.226 414.382C250.386 413.46 252.261 413.776 253.85 415.332C255.348 416.636 256.026 418.308 255.883 420.348C255.74 422.388 254.2 424.01 251.261 425.214C244.262 428.169 238.667 431.967 234.476 436.605C230.195 440.993 226.831 445.688 224.385 450.69C217.217 465.351 216.421 478.774 221.998 490.958C227.575 503.142 239.12 513.17 256.633 521.04C274.146 528.91 289.833 531.121 303.695 527.673C317.557 524.225 328.072 515.17 335.241 500.509C337.687 495.507 339.387 490.065 340.341 484.182C341.204 478.048 340.582 471.457 338.475 464.408C337.56 461.473 337.875 459.3 339.419 457.89C340.963 456.48 342.737 455.91 344.741 456.179C346.83 456.276 348.283 457.455 349.1 459.716C351.914 467.503 352.861 475.397 351.939 483.398C350.926 491.148 348.818 498.3 345.613 504.855Z" fill="black"/>
<path d="M385.869 448.115C383.264 451.193 380.294 451.435 376.96 448.841L274.213 368.911C270.879 366.318 270.515 363.482 273.119 360.405C275.6 357.474 278.508 357.305 281.842 359.898L298.208 372.631C293.787 363.601 292.473 354.315 294.267 344.773C296.06 335.231 300.492 326.283 307.562 317.93C308.678 316.611 309.912 315.748 311.262 315.34C312.585 314.668 314.004 314.921 315.52 316.1C318.702 318.576 319.005 321.484 316.427 324.826L314.422 327.641C306.304 339.311 302.898 350.759 304.205 361.983C305.635 373.061 311.73 382.785 322.49 391.155L384.775 439.609C388.109 442.202 388.473 445.038 385.869 448.115Z" fill="black"/>
<path d="M483.658 363.311C473.216 370.491 462.336 374.363 451.019 374.927C439.859 375.383 428.923 372.774 418.211 367.102C407.657 361.321 398.009 352.588 389.268 340.904C380.527 329.22 374.993 317.659 372.666 306.221C370.497 294.674 371.426 283.907 375.455 273.92C379.642 263.824 386.956 255.186 397.398 248.006C407.84 240.827 418.641 237.009 429.8 236.553C441.118 235.989 452.054 238.597 462.608 244.378C473.321 250.051 483.047 258.729 491.788 270.413C500.529 282.098 505.984 293.713 508.153 305.26C510.481 316.697 509.551 327.464 505.364 337.561C501.335 347.548 494.1 356.132 483.658 363.311ZM476.93 354.317C489.587 345.615 496.391 334.534 497.343 321.074C498.338 307.352 493.085 292.804 481.584 277.43C470.082 262.056 457.451 252.697 443.689 249.354C429.971 245.749 416.783 248.297 404.127 257C391.628 265.594 384.881 276.752 383.886 290.474C382.776 304.042 387.971 318.514 399.473 333.888C410.974 349.262 423.663 358.697 437.539 362.194C451.301 365.537 464.431 362.911 476.93 354.317Z" fill="black"/>
<path d="M597.285 311.297C585.95 315.52 575.692 315.246 566.51 310.474C557.435 305.458 550.265 296.455 545 283.465L486.255 138.535C484.668 134.62 485.764 131.959 489.542 130.551C493.32 129.144 496.003 130.397 497.59 134.312L555.578 277.374C564.377 299.082 577.233 306.786 594.146 300.486C595.945 299.815 597.438 299.157 598.625 298.51C599.813 297.862 601.036 297.304 602.295 296.835C605.354 295.696 607.424 296.46 608.506 299.129C609.3 301.087 609.337 302.711 608.618 304.003C607.899 305.295 606.388 306.677 604.086 308.149C602.899 308.796 601.675 309.355 600.416 309.824C599.408 310.404 598.365 310.895 597.285 311.297Z" fill="black"/>
<path d="M668.958 296.814C657.075 299.077 647.054 297.077 638.895 290.814C630.885 284.327 625.458 274.221 622.614 260.497L590.884 107.365C590.026 103.229 591.578 100.784 595.539 100.03C599.5 99.2754 601.909 100.966 602.766 105.102L634.087 256.26C638.84 279.196 650.081 288.976 667.81 285.6C669.696 285.241 671.28 284.841 672.561 284.402C673.843 283.963 675.144 283.617 676.464 283.366C679.67 282.755 681.566 283.86 682.15 286.68C682.578 288.748 682.324 290.36 681.387 291.515C680.45 292.671 678.72 293.782 676.197 294.849C674.915 295.288 673.614 295.634 672.294 295.885C671.201 296.289 670.089 296.598 668.958 296.814Z" fill="black"/>
<path d="M817.937 303.177C805.736 300.552 795.693 295.447 787.808 287.859C780.155 280.126 775.019 270.479 772.401 258.92C770.015 247.214 770.485 234.257 773.811 220.049C778.843 198.55 788.268 182.709 802.087 172.526C815.949 162.155 832.172 158.969 850.755 162.967C862.205 165.43 871.541 170.187 878.762 177.239C886.027 184.104 890.675 192.467 892.704 202.329L912.395 118.203C913.357 114.09 915.81 112.457 919.751 113.305C923.693 114.153 925.183 116.634 924.22 120.747L880.047 309.47C879.084 313.583 876.632 315.215 872.69 314.367C868.748 313.519 867.259 311.039 868.221 306.926L873.407 284.773C867.177 292.858 859.226 298.609 849.554 302.026C839.926 305.257 829.387 305.64 817.937 303.177ZM820.778 292.301C835.794 295.532 848.823 292.935 859.864 284.51C871.137 275.939 878.961 262.306 883.337 243.611C887.713 224.917 886.693 209.479 880.277 197.299C874.093 184.973 863.493 177.194 848.476 173.964C833.648 170.774 820.597 173.464 809.324 182.035C798.096 190.42 790.293 203.959 785.918 222.654C781.542 241.349 782.54 256.879 788.912 269.246C795.327 281.426 805.949 289.111 820.778 292.301Z" fill="black"/>
<path d="M954.732 354.578C943.861 348.065 936.016 339.899 931.195 330.077C926.54 320.355 924.924 309.658 926.348 297.986C927.937 286.413 932.715 274.515 940.683 262.29C948.651 250.066 957.712 240.732 967.866 234.29C978.184 227.947 988.921 224.65 1000.08 224.4C1011.4 224.249 1022.49 227.43 1033.36 233.942C1044.23 240.454 1052 248.572 1056.65 258.294C1061.47 268.115 1063.09 278.813 1061.5 290.386C1060.08 302.057 1055.38 314.005 1047.41 326.23C1039.44 338.454 1030.3 347.738 1019.98 354.081C1009.83 360.523 999.092 363.82 987.772 363.971C976.616 364.221 965.602 361.09 954.732 354.578ZM960.865 345.168C974.041 353.062 987.301 354.855 1000.64 350.547C1014.26 346.177 1026.3 335.95 1036.79 319.865C1047.27 303.78 1051.53 288.996 1049.55 275.512C1047.85 261.965 1040.41 251.245 1027.23 243.352C1014.22 235.556 1000.91 233.844 987.294 238.214C973.787 242.423 961.791 252.57 951.307 268.654C940.822 284.739 936.515 299.604 938.385 313.249C940.36 326.733 947.853 337.373 960.865 345.168Z" fill="black"/>
<path d="M1056.27 429.924C1053.72 426.32 1053.96 422.504 1056.98 418.475L1136.75 314.015C1138.98 311.19 1141.13 309.906 1143.2 310.165C1145.42 310.319 1147.09 311.18 1148.2 312.747C1149.97 315.254 1149.75 317.92 1147.51 320.745L1069.63 420.891L1194.59 390.709C1199.62 389.5 1203.46 390.776 1206.12 394.537C1208.79 398.297 1208.6 402.192 1205.58 406.221L1129.55 505.501L1256.04 473.984C1259.6 473.039 1262.33 473.898 1264.21 476.562C1265.77 478.755 1265.82 480.663 1264.39 482.286C1263.22 483.96 1261.24 485.138 1258.43 485.821L1127.39 517.893C1122.37 519.101 1118.64 517.982 1116.2 514.534C1113.64 510.931 1113.88 507.114 1116.9 503.086L1192.61 403.335L1067.64 433.517C1062.61 434.726 1058.83 433.528 1056.27 429.924Z" fill="black"/>
<path d="M1144.38 581.912C1143.65 577.948 1145.36 575.611 1149.53 574.903L1277.86 553.084C1282.03 552.376 1284.47 554.004 1285.21 557.969C1285.91 561.745 1284.17 563.987 1280.01 564.695L1259 568.267C1269.11 571.221 1277.23 576.56 1283.34 584.284C1289.68 592.164 1293.83 601.39 1295.78 611.963C1301.82 644.625 1287.43 663.916 1252.6 669.838L1169.7 683.933C1165.53 684.641 1163.08 683.013 1162.35 679.048C1161.62 675.084 1163.33 672.747 1167.5 672.039L1249.27 658.137C1263.84 655.659 1273.99 650.914 1279.73 643.903C1285.46 636.892 1287.12 626.872 1284.71 613.845C1282.02 599.308 1275.31 588.375 1264.58 581.046C1254.08 573.874 1241.26 571.575 1226.12 574.15L1151.73 586.797C1147.56 587.505 1145.11 585.877 1144.38 581.912Z" fill="black"/>
<path d="M1153.09 840.077C1154.48 831.355 1157.06 823.1 1160.83 815.309C1164.6 807.519 1170.06 800.169 1177.19 793.26C1178.79 791.749 1180.62 791.241 1182.68 791.738C1184.71 792.423 1186.16 793.703 1187.02 795.577C1187.89 797.451 1187.29 799.4 1185.21 801.424C1178.74 807.848 1173.89 814.509 1170.65 821.407C1167.41 828.305 1165.21 835.356 1164.06 842.561C1162.1 854.885 1162.97 864.619 1166.69 871.762C1170.38 879.095 1176.31 883.361 1184.48 884.56C1190.94 885.507 1196.32 884.066 1200.63 880.235C1205.09 876.621 1209.22 870.242 1213.01 861.096L1222.48 838.328C1227.24 826.801 1233.02 818.626 1239.81 813.803C1246.58 809.169 1254.62 807.535 1263.93 808.901C1275.7 810.629 1284.4 816.465 1290 826.407C1295.77 836.568 1297.45 849.137 1295.06 864.115C1293.73 872.457 1291.13 880.225 1287.26 887.419C1283.36 894.802 1278.32 900.758 1272.16 905.286C1269.95 906.903 1267.84 907.369 1265.81 906.683C1263.78 905.997 1262.54 904.65 1262.08 902.643C1261.59 900.825 1262.48 898.918 1264.74 896.921C1270.15 892.282 1274.4 886.987 1277.49 881.037C1280.77 875.115 1282.93 868.836 1283.99 862.2C1285.84 850.634 1284.71 841.252 1280.61 834.053C1276.7 826.882 1270.57 822.683 1262.21 821.456C1255.75 820.508 1250.21 821.732 1245.59 825.128C1240.96 828.524 1236.91 834.43 1233.43 842.845L1223.96 865.613C1218.95 877.491 1213.21 886.059 1206.73 891.318C1200.25 896.577 1192.36 898.523 1183.05 897.157C1171.46 895.456 1162.9 889.445 1157.35 879.123C1152 868.829 1150.57 855.814 1153.09 840.077Z" fill="black"/>
<path d="M1108.39 963.345C1114.21 951.444 1122.03 942.44 1131.85 936.335C1141.58 930.401 1152.58 927.349 1164.84 927.178C1177.02 927.18 1189.76 930.171 1203.07 936.153C1223.03 945.125 1236.31 957.297 1242.89 972.668C1249.47 988.039 1248.42 1004.61 1239.73 1022.37C1236.53 1028.93 1232.06 1035.02 1226.31 1040.64C1220.66 1046.52 1213.82 1050.91 1205.77 1053.82C1203.61 1054.74 1201.74 1054.42 1200.15 1052.87C1198.65 1051.56 1197.97 1049.89 1198.12 1047.85C1198.26 1045.81 1199.8 1044.19 1202.74 1042.99C1209.74 1040.03 1215.33 1036.23 1219.52 1031.59C1223.81 1027.21 1227.17 1022.51 1229.61 1017.51C1236.78 1002.85 1237.58 989.426 1232 977.242C1226.42 965.058 1214.88 955.03 1197.37 947.16C1179.85 939.29 1164.17 937.079 1150.31 940.527C1136.44 943.975 1125.93 953.03 1118.76 967.691C1116.31 972.693 1114.61 978.135 1113.66 984.018C1112.8 990.152 1113.42 996.743 1115.53 1003.79C1116.44 1006.73 1116.13 1008.9 1114.58 1010.31C1113.04 1011.72 1111.26 1012.29 1109.26 1012.02C1107.17 1011.92 1105.72 1010.74 1104.9 1008.48C1102.09 1000.7 1101.14 992.803 1102.06 984.802C1103.07 977.052 1105.18 969.9 1108.39 963.345Z" fill="black"/>
<path d="M1068.13 1020.09C1070.74 1017.01 1073.71 1016.77 1077.04 1019.36L1179.79 1099.29C1183.12 1101.88 1183.49 1104.72 1180.88 1107.8C1178.4 1110.73 1175.49 1110.9 1172.16 1108.3L1155.79 1095.57C1160.21 1104.6 1161.53 1113.89 1159.73 1123.43C1157.94 1132.97 1153.51 1141.92 1146.44 1150.27C1145.32 1151.59 1144.09 1152.45 1142.74 1152.86C1141.41 1153.53 1140 1153.28 1138.48 1152.1C1135.3 1149.62 1135 1146.72 1137.57 1143.37L1139.58 1140.56C1147.7 1128.89 1151.1 1117.44 1149.8 1106.22C1148.36 1095.14 1142.27 1085.42 1131.51 1077.04L1069.23 1028.59C1065.89 1026 1065.53 1023.16 1068.13 1020.09Z" fill="black"/>
<path d="M970.343 1104.89C980.784 1097.71 991.664 1093.84 1002.98 1093.27C1014.14 1092.82 1025.08 1095.43 1035.79 1101.1C1046.34 1106.88 1055.99 1115.61 1064.73 1127.3C1073.47 1138.98 1079.01 1150.54 1081.33 1161.98C1083.5 1173.53 1082.57 1184.29 1078.55 1194.28C1074.36 1204.38 1067.04 1213.01 1056.6 1220.19C1046.16 1227.37 1035.36 1231.19 1024.2 1231.65C1012.88 1232.21 1001.95 1229.6 991.392 1223.82C980.68 1218.15 970.953 1209.47 962.212 1197.79C953.471 1186.1 948.016 1174.49 945.847 1162.94C943.52 1151.5 944.45 1140.74 948.637 1130.64C952.665 1120.65 959.901 1112.07 970.343 1104.89ZM977.071 1113.88C964.414 1122.59 957.61 1133.67 956.658 1147.13C955.662 1160.85 960.916 1175.4 972.417 1190.77C983.918 1206.14 996.55 1215.5 1010.31 1218.85C1024.03 1222.45 1037.22 1219.9 1049.87 1211.2C1062.37 1202.61 1069.12 1191.45 1070.11 1177.73C1071.22 1164.16 1066.03 1149.69 1054.53 1134.31C1043.03 1118.94 1030.34 1109.5 1016.46 1106.01C1002.7 1102.66 989.569 1105.29 977.071 1113.88Z" fill="black"/>
<path d="M856.715 1156.9C868.05 1152.68 878.309 1152.96 887.491 1157.73C896.565 1162.74 903.735 1171.75 909 1184.74L967.746 1329.67C969.333 1333.58 968.237 1336.24 964.459 1337.65C960.68 1339.06 957.998 1337.8 956.411 1333.89L898.422 1190.83C889.623 1169.12 876.767 1161.42 859.855 1167.72C858.056 1168.39 856.562 1169.04 855.375 1169.69C854.188 1170.34 852.964 1170.9 851.705 1171.37C848.646 1172.51 846.576 1171.74 845.494 1169.07C844.701 1167.11 844.664 1165.49 845.383 1164.2C846.101 1162.91 847.612 1161.52 849.915 1160.05C851.102 1159.4 852.325 1158.85 853.585 1158.38C854.592 1157.8 855.636 1157.31 856.715 1156.9Z" fill="black"/>
<path d="M785.042 1171.39C796.925 1169.12 806.946 1171.12 815.105 1177.39C823.115 1183.87 828.542 1193.98 831.386 1207.7L863.116 1360.84C863.974 1364.97 862.422 1367.42 858.461 1368.17C854.5 1368.93 852.091 1367.23 851.234 1363.1L819.913 1211.94C815.16 1189 803.919 1179.22 786.19 1182.6C784.304 1182.96 782.72 1183.36 781.439 1183.8C780.157 1184.24 778.856 1184.58 777.536 1184.84C774.33 1185.45 772.434 1184.34 771.85 1181.52C771.422 1179.45 771.676 1177.84 772.613 1176.69C773.55 1175.53 775.28 1174.42 777.803 1173.35C779.085 1172.91 780.386 1172.57 781.706 1172.32C782.799 1171.91 783.911 1171.6 785.042 1171.39Z" fill="black"/>
<path d="M636.063 1165.02C648.264 1167.65 658.307 1172.75 666.192 1180.34C673.845 1188.08 678.981 1197.72 681.599 1209.28C683.985 1220.99 683.515 1233.94 680.189 1248.15C675.157 1269.65 665.732 1285.49 651.913 1295.68C638.051 1306.05 621.828 1309.23 603.245 1305.23C591.795 1302.77 582.459 1298.01 575.238 1290.96C567.973 1284.1 563.325 1275.73 561.296 1265.87L541.605 1350C540.643 1354.11 538.19 1355.74 534.249 1354.9C530.307 1354.05 528.817 1351.57 529.78 1347.45L573.953 1158.73C574.916 1154.62 577.368 1152.99 581.31 1153.83C585.252 1154.68 586.741 1157.16 585.779 1161.28L580.593 1183.43C586.823 1175.34 594.774 1169.59 604.446 1166.17C614.074 1162.94 624.613 1162.56 636.063 1165.02ZM633.222 1175.9C618.206 1172.67 605.177 1175.27 594.136 1183.69C582.863 1192.26 575.039 1205.9 570.663 1224.59C566.287 1243.28 567.307 1258.72 573.723 1270.9C579.907 1283.23 590.507 1291.01 605.524 1294.24C620.352 1297.43 633.403 1294.74 644.676 1286.17C655.904 1277.78 663.707 1264.24 668.082 1245.55C672.458 1226.85 671.46 1211.32 665.088 1198.95C658.673 1186.77 648.051 1179.09 633.222 1175.9Z" fill="black"/>
<path d="M499.269 1113.62C510.139 1120.14 517.985 1128.3 522.805 1138.12C527.461 1147.85 529.077 1158.54 527.653 1170.22C526.064 1181.79 521.285 1193.69 513.317 1205.91C505.349 1218.14 496.288 1227.47 486.135 1233.91C475.817 1240.25 465.079 1243.55 453.924 1243.8C442.603 1243.95 431.507 1240.77 420.637 1234.26C409.766 1227.75 402.003 1219.63 397.347 1209.91C392.527 1200.09 390.911 1189.39 392.5 1177.82C393.924 1166.14 398.62 1154.2 406.588 1141.97C414.556 1129.75 423.699 1120.46 434.018 1114.12C444.171 1107.68 454.908 1104.38 466.229 1104.23C477.385 1103.98 488.398 1107.11 499.269 1113.62ZM493.135 1123.03C479.959 1115.14 466.699 1113.35 453.357 1117.65C439.744 1122.02 427.696 1132.25 417.212 1148.34C406.727 1164.42 402.473 1179.21 404.447 1192.69C406.153 1206.24 413.594 1216.96 426.77 1224.85C439.782 1232.64 453.094 1234.36 466.706 1229.99C480.214 1225.78 492.209 1215.63 502.694 1199.55C513.178 1183.46 517.485 1168.6 515.615 1154.95C513.64 1141.47 506.147 1130.83 493.135 1123.03Z" fill="black"/>
<path d="M397.725 1038.28C400.278 1041.88 400.042 1045.7 397.018 1049.73L317.247 1154.19C315.016 1157.01 312.869 1158.29 310.805 1158.04C308.58 1157.88 306.912 1157.02 305.803 1155.45C304.027 1152.95 304.255 1150.28 306.485 1147.46L384.375 1047.31L259.405 1077.49C254.384 1078.7 250.541 1077.42 247.878 1073.66C245.215 1069.9 245.395 1066.01 248.42 1061.98L324.453 962.7L197.96 994.217C194.398 995.162 191.674 994.303 189.787 991.639C188.234 989.445 188.176 987.538 189.613 985.915C190.778 984.241 192.764 983.063 195.572 982.38L326.609 950.308C331.631 949.1 335.362 950.219 337.804 953.666C340.356 957.27 340.12 961.086 337.096 965.115L261.395 1064.87L386.365 1034.68C391.386 1033.48 395.173 1034.67 397.725 1038.28Z" fill="black"/>
<path d="M309.62 886.288C310.353 890.252 308.638 892.589 304.473 893.297L176.139 915.116C171.975 915.824 169.526 914.196 168.793 910.231C168.094 906.455 169.827 904.213 173.991 903.505L195.002 899.933C184.889 896.979 176.775 891.64 170.66 883.916C164.322 876.036 160.175 866.81 158.219 856.237C152.177 823.575 166.57 804.284 201.398 798.362L284.305 784.266C288.469 783.558 290.918 785.187 291.651 789.152C292.384 793.116 290.669 795.453 286.505 796.161L204.734 810.063C190.159 812.541 180.006 817.286 174.275 824.297C168.543 831.308 166.882 841.327 169.292 854.354C171.981 868.892 178.689 879.825 189.416 887.154C199.919 894.326 212.742 896.625 227.885 894.05L302.273 881.402C306.437 880.694 308.886 882.323 309.62 886.288Z" fill="black"/>
</svg>
